# xmcd
#
# Track frame offsets:
#	150
#	12448
#	25042
#	36383
#	48740
#	63780
#	72217
#	84994
#	104805
#	117841
#	139115
#	157529
#	167731
#	180062
#	194652
#
# Disc length: 2753 seconds
#
# Revision: 1
# Processed by: cddbd v1.5.2PL0 Copyright (c) Steve Scherf et al.
# Submitted via: audiograbber 1.83.01
#
DISCID=c00abf0f
DTITLE=Various Artist - 60 Greatest Trucker and Country Hits - CD1
DYEAR=2018
DGENRE=Country
TTITLE0=Johnny Cash - I Walk The Line
TTITLE1=Billie Jo Spears - 57 Chevrolet
TTITLE2=Willie Nelson - Country Willie
TTITLE3=Bobby Bare - Green Green Grass Of Home
TTITLE4=Billie Davis - Angel Of The Morning
TTITLE5=Lorne Greene - Bonanza
TTITLE6=Conway Twitty - I Can't Stop Loving You
TTITLE7=John Denver - Rocky Mountain High (Live)
TTITLE8=The Bellamy Brothers - Get Into Reggae Cowboy (Live)
TTITLE9=Olivia Newton-John - Banks Of Ohio
TTITLE10=Kris Kristofferson - A Moment Of Forever
TTITLE11=Willie Nelson - Eight More Miles To Louisville
TTITLE12=Charlie Rich - Behind Closed Doors
TTITLE13=Jeannie C. Riley - Harper Valley P.T.A.
TTITLE14=Tammy Wynette - Stand By Your Man
EXTD=
EXTT0=
EXTT1=
EXTT2=
EXTT3=
EXTT4=
EXTT5=
EXTT6=
EXTT7=
EXTT8=
EXTT9=
EXTT10=
EXTT11=
EXTT12=
EXTT13=
EXTT14=
PLAYORDER=
